PERFORMER "БГ"
TITLE "Аэростат vol. 542 - Стихи Алена Боскэ"
FILE "Boris Grebenshchikov - Aerostat Radio vol.542.mp3" MP3
  TRACK 01 AUDIO
    TITLE "Заставка"
    PERFORMER "БГ"
    INDEX 01 00:00:00
  TRACK 02 AUDIO
    TITLE "Вступление"
    PERFORMER "БГ"
    INDEX 01 00:40:36
  TRACK 03 AUDIO
    TITLE "Smiles"
    PERFORMER "Calliope Music"
    INDEX 01 01:20:20
  TRACK 04 AUDIO
    TITLE "Комментарии"
    PERFORMER "БГ"
    INDEX 01 03:20:05
  TRACK 05 AUDIO
    TITLE "Corcovado"
    PERFORMER "Cannonball Adderley"
    INDEX 01 04:23:66
  TRACK 06 AUDIO
    TITLE "Комментарии"
    PERFORMER "БГ"
    INDEX 01 11:05:07
  TRACK 07 AUDIO
    TITLE "Travels With Charley"
    PERFORMER "Cardigans"
    INDEX 01 11:34:21
  TRACK 08 AUDIO
    TITLE "Комментарии"
    PERFORMER "БГ"
    INDEX 01 15:42:09
  TRACK 09 AUDIO
    TITLE "Sun/C79"
    PERFORMER "Cat Stevens"
    INDEX 01 16:25:60
  TRACK 10 AUDIO
    TITLE "Комментарии"
    PERFORMER "БГ"
    INDEX 01 20:59:44
  TRACK 11 AUDIO
    TITLE "Somewhere Quiet"
    PERFORMER "Brian Wilson"
    INDEX 01 21:38:25
  TRACK 12 AUDIO
    TITLE "Комментарии"
    PERFORMER "БГ"
    INDEX 01 24:35:55
  TRACK 13 AUDIO
    TITLE "Fluffy Tuffs"
    PERFORMER "Cocteau Twins"
    INDEX 01 25:13:10
  TRACK 14 AUDIO
    TITLE "Комментарии"
    PERFORMER "БГ"
    INDEX 01 28:17:42
  TRACK 15 AUDIO
    TITLE "Recorder Sonata C Maj"
    PERFORMER "Teleman"
    INDEX 01 28:48:50
  TRACK 16 AUDIO
    TITLE "Комментарии"
    PERFORMER "БГ"
    INDEX 01 31:25:25
  TRACK 17 AUDIO
    TITLE "Chiarescuroed"
    PERFORMER "Djivan Gasparian"
    INDEX 01 31:58:01
  TRACK 18 AUDIO
    TITLE "Комментарии"
    PERFORMER "БГ"
    INDEX 01 36:26:31
  TRACK 19 AUDIO
    TITLE "Nam Dhare"
    PERFORMER "Bhajan Singers"
    INDEX 01 36:58:06
  TRACK 20 AUDIO
    TITLE "Заключение"
    PERFORMER "БГ"
    INDEX 01 40:52:39
  TRACK 21 AUDIO
    TITLE "And I Love Her"
    PERFORMER "Beatles"
    INDEX 01 41:55:09
  TRACK 22 AUDIO
    TITLE "Заставка"
    PERFORMER "БГ"
    INDEX 01 44:23:17
